<?xml version="1.0" encoding="UTF-8" standalone="no"?>
<!-- Created with Inkscape (http://www.inkscape.org/) -->

<svg
   xmlns:dc="http://purl.org/dc/elements/1.1/"
   xmlns:cc="http://creativecommons.org/ns#"
   xmlns:rdf="http://www.w3.org/1999/02/22-rdf-syntax-ns#"
   xmlns:svg="http://www.w3.org/2000/svg"
   xmlns="http://www.w3.org/2000/svg"
   xmlns:sodipodi="http://sodipodi.sourceforge.net/DTD/sodipodi-0.dtd"
   xmlns:inkscape="http://www.inkscape.org/namespaces/inkscape"
   width="100mm"
   height="100mm"
   viewBox="0 0 100 100"
   version="1.1"
   id="svg820"
   inkscape:version="0.92.4 (5da689c313, 2019-01-14)"
   sodipodi:docname="rotation-icon.svg">
  <defs
     id="defs814" />
  <sodipodi:namedview
     id="base"
     pagecolor="#ffffff"
     bordercolor="#666666"
     borderopacity="1.0"
     inkscape:pageopacity="0.0"
     inkscape:pageshadow="2"
     inkscape:zoom="0.98994949"
     inkscape:cx="285.99361"
     inkscape:cy="80.477511"
     inkscape:document-units="mm"
     inkscape:current-layer="layer1"
     showgrid="false"
     inkscape:window-width="1920"
     inkscape:window-height="1001"
     inkscape:window-x="-9"
     inkscape:window-y="-9"
     inkscape:window-maximized="1" />
  <metadata
     id="metadata817">
    <rdf:RDF>
      <cc:Work
         rdf:about="">
        <dc:format>image/svg+xml</dc:format>
        <dc:type
           rdf:resource="http://purl.org/dc/dcmitype/StillImage" />
        <dc:title />
      </cc:Work>
    </rdf:RDF>
  </metadata>
  <g
     inkscape:label="Layer 1"
     inkscape:groupmode="layer"
     id="layer1"
     transform="translate(0,-197)">
    <g
       id="g825">
      <path
         id="path814"
         transform="matrix(0.26458333,0,0,0.26458333,0,197)"
         d="M 148.98438 49.792969 A 135 135 0 0 0 50.384766 197.28125 A 135 135 0 0 0 183.03516 315.08984 A 135 135 0 0 0 317.8457 199.75781 A 135 135 0 0 0 221.99219 50.46875 L 212.58398 82.810547 A 101.38757 101.38757 0 0 1 285.67383 180.0957 A 101.38757 101.38757 0 0 1 184.28516 281.48242 A 101.38757 101.38757 0 0 1 82.898438 180.0957 A 101.38757 101.38757 0 0 1 157.78125 82.263672 L 148.98438 49.792969 z "
         style="fill:#a0c2d9;fill-opacity:1;fill-rule:nonzero;stroke:none;stroke-width:3.77952766;stroke-linecap:round;stroke-linejoin:round;stroke-miterlimit:4;stroke-dasharray:none;stroke-dashoffset:0;stroke-opacity:1" />
      <path
         sodipodi:nodetypes="cccc"
         inkscape:connector-curvature="0"
         id="path816"
         d="m 37.934555,206.18724 10.967919,7.78346 -8.268238,10.28691 z"
         style="fill:#a0c2d9;fill-opacity:1;stroke:none;stroke-width:0.27832615px;stroke-linecap:butt;stroke-linejoin:miter;stroke-opacity:1" />
    </g>
  </g>
</svg>
